#N canvas 601 193 443 700 10;
#X obj 15 329 line~;
#X obj 15 499 *~ 0.5;
#X obj 15 44 pow 2;
#X obj 15 304 pack 0 15;
#X obj 133 418 table waveform;
#X obj 15 418 tabosc4~ waveform;
#X obj 121 49 r freqFine @hv_param 0 1 0.5;
#X obj 121 101 + 0.5;
#X obj 172 101 * 2;
#X obj 121 73 moses 0.5;
#X obj 54 163 * 1;
#X obj 15 246 + 0;
#X obj 48 473 pow 2;
#X obj 242 264 pow 2;
#X obj 15 393 clip~ 0.001 10000;
#X obj 15 215 float;
#X obj 64 214 float;
#X obj 54 187 t b b f;
#X obj 120 130 float;
#X obj 42 98 t b f;
#X obj 17 651 dac~ 1 2 3 4;
#X obj 193 263 adc~ 3;
#X obj 242 240 r cvFreqAmt @hv_param 0 1 0;
#X obj 162 530 pow 2;
#X obj 102 563 *~ 0;
#X obj 101 531 adc~ 4;
#X obj 162 501 r cvAmpAmt @hv_param 0 1 0;
#X obj 102 588 +~ 1;
#X obj 16 618 *~;
#X obj 48 449 r amp @hv_param 0 1 0.5;
#X obj 125 184 r lfoOn @hv_param 0 1 0;
#X obj 15 280 / 1;
#X obj 125 209 sel 0 1;
#X msg 125 234 1;
#X msg 160 234 100, f 4;
#X obj 333 48 adc~ 1 2;
#X obj 15 19 r freqCoarse @hv_param 0 1 0.5;
#X obj 15 68 * 1760;
#X obj 15 368 *~;
#N canvas 1253 420 450 300 NaiveAA 0;
#X obj 18 12 inlet~;
#X obj 18 116 outlet~;
#X obj 17 39 lop~ 7000;
#X obj 17 63 lop~ 7000;
#X obj 17 89 lop~ 7000;
#X connect 0 0 2 0;
#X connect 2 0 3 0;
#X connect 3 0 4 0;
#X connect 4 0 1 0;
#X restore 15 531 pd NaiveAA;
#X obj 173 347 pow~;
#X obj 137 318 float 2;
#X obj 193 290 *~ 5;
#X obj 193 317 *~;
#X obj 132 291 loadbang;
#X text 190 612 Wavetable Oscillator by Daniel Rothmann www.danielrothmann.com
daniel@danielrothmann.com;
#X connect 0 0 38 0;
#X connect 1 0 39 0;
#X connect 2 0 37 0;
#X connect 3 0 0 0;
#X connect 5 0 1 0;
#X connect 6 0 9 0;
#X connect 7 0 18 0;
#X connect 8 0 18 0;
#X connect 9 0 7 0;
#X connect 9 1 8 0;
#X connect 10 0 17 0;
#X connect 11 0 31 0;
#X connect 12 0 1 1;
#X connect 13 0 43 1;
#X connect 14 0 5 0;
#X connect 15 0 11 0;
#X connect 16 0 11 1;
#X connect 17 0 15 0;
#X connect 17 1 16 0;
#X connect 17 2 16 1;
#X connect 18 0 10 0;
#X connect 19 0 18 0;
#X connect 19 1 10 1;
#X connect 21 0 42 0;
#X connect 22 0 13 0;
#X connect 23 0 24 1;
#X connect 24 0 27 0;
#X connect 25 0 24 0;
#X connect 26 0 23 0;
#X connect 27 0 28 1;
#X connect 28 0 20 0;
#X connect 28 0 20 1;
#X connect 28 0 20 2;
#X connect 28 0 20 3;
#X connect 29 0 12 0;
#X connect 30 0 32 0;
#X connect 31 0 3 0;
#X connect 32 0 33 0;
#X connect 32 1 34 0;
#X connect 33 0 31 1;
#X connect 34 0 31 1;
#X connect 36 0 2 0;
#X connect 37 0 15 0;
#X connect 37 0 19 0;
#X connect 38 0 14 0;
#X connect 39 0 28 0;
#X connect 40 0 38 1;
#X connect 41 0 40 0;
#X connect 42 0 43 0;
#X connect 43 0 40 1;
#X connect 44 0 41 0;
